<?xml version="1.0" encoding="UTF-8"?>
<svg width="121px" height="45px" viewBox="0 0 121 45" version="1.1" xmlns="http://www.w3.org/2000/svg" xmlns:xlink="http://www.w3.org/1999/xlink">
    <!-- Generator: Sketch 53.2 (72643) - https://sketchapp.com -->
    <title>iotv</title>
    <desc>Created with Sketch.</desc>
    <g id="Page-1" stroke="none" stroke-width="1" fill="none" fill-rule="evenodd">
        <path d="M11.1989982,15.1660156 L24.1408927,15.1660156 L16.2605949,36.3740234 L20.2684074,36.3740234 L17.4348095,44 L0.485102455,44 L3.31870036,36.3740234 L7.66049724,36.3740234 L12.7071972,22.7919922 L8.36540029,22.7919922 L11.1989982,15.1660156 Z M18.5495764,5.87011719 C18.8046704,5.18359032 19.1694913,4.53882137 19.6440499,3.93579102 C20.1186085,3.33276066 20.6612702,2.80859598 21.2720513,2.36328125 C21.8828325,1.91796652 22.5379894,1.56543099 23.2375418,1.30566406 C23.9370943,1.04589714 24.6394008,0.916015625 25.3444824,0.916015625 C26.0124545,0.916015625 26.5950473,1.04589714 27.0922782,1.30566406 C27.5895091,1.56543099 27.9780429,1.91796652 28.2578912,2.36328125 C28.5377395,2.80859598 28.6955102,3.33276066 28.7312081,3.93579102 C28.7669059,4.53882137 28.6572095,5.18359032 28.4021154,5.87011719 C28.1470214,6.55664406 27.7775619,7.201413 27.2937259,7.80444336 C26.8098899,8.40747372 26.2625896,8.9316384 25.6518084,9.37695313 C25.0410273,9.82226785 24.390509,10.1748034 23.700234,10.4345703 C23.0099589,10.6943372 22.3308455,10.8242188 21.6628735,10.8242188 C20.9577918,10.8242188 20.3520059,10.6943372 19.8454976,10.4345703 C19.3389893,10.1748034 18.9458169,9.82226785 18.6659686,9.37695313 C18.3861203,8.9316384 18.2329882,8.40747372 18.2065677,7.80444336 C18.1801473,7.201413 18.2944823,6.55664406 18.5495764,5.87011719 Z M26.2286316,29.4716797 C27.0077025,27.3749895 28.1188688,25.4082123 29.5621637,23.5712891 C31.0054586,21.7343658 32.6594247,20.1294014 34.5241117,18.7563477 C36.3887987,17.3832939 38.4063587,16.2978556 40.5768521,15.5 C42.7473456,14.7021444 44.9551234,14.3032227 47.2002518,14.3032227 C49.4453802,14.3032227 51.3613405,14.7021444 52.94819,15.5 C54.5350396,16.2978556 55.7506016,17.3832939 56.5949125,18.7563477 C57.4392234,20.1294014 57.8958319,21.7343658 57.9647516,23.5712891 C58.0336713,25.4082123 57.678601,27.3749895 56.89953,29.4716797 C56.120459,31.5683699 55.0214851,33.5397857 53.6025751,35.3859863 C52.1836652,37.232187 50.5448064,38.8464286 48.6859496,40.2287598 C46.8270927,41.6110909 44.8078092,42.7011679 42.6280383,43.4990234 C40.4482675,44.296879 38.2080193,44.6958008 35.9072266,44.6958008 C33.587879,44.6958008 31.6348098,44.296879 30.0479602,43.4990234 C28.4611106,42.7011679 27.2548259,41.6157295 26.4290698,40.2426758 C25.6033137,38.869622 25.1669833,37.260019 25.1200656,35.4138184 C25.0731479,33.5676177 25.4426662,31.5869246 26.2286316,29.4716797 Z M34.5504089,29.4716797 C34.1436373,30.5664117 33.955165,31.5729935 33.9849861,32.4914551 C34.0148073,33.4099167 34.2256849,34.2031217 34.6176252,34.8710937 C35.0095655,35.5390658 35.5587043,36.0585919 36.2650582,36.4296875 C36.971412,36.8007831 37.8070007,36.9863281 38.7718493,36.9863281 C39.7552526,36.9863281 40.7362816,36.8054217 41.7149655,36.4436035 C42.6936495,36.0817853 43.6178699,35.5668979 44.4876547,34.8989258 C45.3574394,34.2309537 46.1392277,33.4377487 46.833043,32.5192871 C47.5268582,31.6008255 48.0805906,30.5849665 48.4942566,29.4716797 C48.9217114,28.3212833 49.1315261,27.2822312 49.123707,26.3544922 C49.1158878,25.4267532 48.9218412,24.6381868 48.5415612,23.9887695 C48.1612812,23.3393522 47.6128017,22.8430193 46.8961062,22.4997559 C46.1794107,22.1564924 45.3259269,21.9941405 44.3356291,22.0126953 C43.377675,21.9941405 42.4128176,22.1564924 41.4410281,22.4997559 C40.4692386,22.8430193 39.5426352,23.3393522 38.6611901,23.9887695 C37.779745,24.6381868 36.9811258,25.4267532 36.2653085,26.3544922 C35.5494913,27.2822312 34.9778638,28.3212833 34.5504089,29.4716797 Z M77.3000724,15.1660156 L83.0613029,15.1660156 L80.3518042,22.4580078 L74.5349096,22.4580078 L69.9496255,34.6484375 C69.6876371,35.3535192 69.5312999,35.9240701 69.4806094,36.3601074 C69.4299189,36.7961448 69.4630022,37.1440417 69.5798601,37.4038086 C69.696718,37.6635755 69.8863462,37.8398433 70.1487506,37.9326172 C70.4111549,38.0253911 70.7371773,38.0717773 71.1268277,38.0717773 C71.8319094,38.0717773 72.4793389,38.002198 73.0691358,37.8630371 C73.6589327,37.7238763 74.2573386,37.5615244 74.8643716,37.3759766 L74.0652205,42.7475586 C72.8983048,43.3413116 71.6695314,43.8144514 70.3788634,44.1669922 C69.0881954,44.519533 67.6450275,44.6958008 66.0493164,44.6958008 C64.9174748,44.6958008 63.9090655,44.5009785 63.0240583,44.1113281 C62.1390511,43.7216777 61.4534141,43.1325723 60.9671268,42.3439941 C60.4808394,41.555416 60.2263867,40.5673887 60.2037609,39.3798828 C60.1811351,38.1923769 60.4721087,36.8100665 61.0766903,35.2329102 L65.9069799,22.4580078 L61.7600073,22.4580078 L64.469506,15.1660156 L68.6443107,15.1660156 L71.2646911,8.26367188 L81.4510094,4.14453125 L77.3000724,15.1660156 Z M87.597924,15.1660156 L102.655053,15.1660156 L99.821455,22.7919922 L96.314619,22.7919922 L96.4162211,35.1772461 L105.554853,22.7919922 L102.437666,22.7919922 L105.271264,15.1660156 L120.328393,15.1660156 L117.494795,22.7919922 L113.653975,22.7919922 L97.1322126,44.1113281 L88.6434431,44.1113281 L87.9650097,22.7919922 L84.7643261,22.7919922 L87.597924,15.1660156 Z" id="iotv" fill="#E2E8F0" fill-rule="nonzero"></path>
    </g>
</svg>